<?xml version="1.0" encoding="utf-8"?>
<!-- Generator: Adobe Illustrator 25.0.1, SVG Export Plug-In . SVG Version: 6.00 Build 0)  -->
<svg version="1.1" id="Layer_1" xmlns="http://www.w3.org/2000/svg" xmlns:xlink="http://www.w3.org/1999/xlink" x="0px" y="0px"
	 viewBox="0 0 697.86 354.86" style="enable-background:new 0 0 697.86 354.86;" xml:space="preserve">
<style type="text/css">
	.st0{fill:#0D0E0E;}
	.st1{fill:#FFFFFF;}
	.st2{fill:#70BF47;}
	.st3{fill:none;stroke:#FFFFFF;stroke-width:3;stroke-linecap:round;stroke-miterlimit:10;}
	.st4{fill:none;stroke:#FFFFFF;stroke-width:2;stroke-linecap:round;stroke-miterlimit:10;}
	.st5{fill:none;stroke:#FFFFFF;stroke-linecap:round;stroke-miterlimit:10;}
</style>
<rect x="-195.37" y="-215.28" class="st0" width="1021.52" height="840.51"/>
<polygon class="st1" points="503.35,88.15 513.42,78.04 513.09,35.9 492.1,35.9 492.1,78.04 "/>
<polygon class="st2" points="502.91,109.61 534.56,77.53 534.56,56.38 555.43,56.38 555.11,192.34 534.56,212.99 533.62,100.07 
	503.17,130.75 471.15,98.4 470.83,213.5 450.28,192.85 449.99,56.38 471.13,56.38 470.97,77.53 "/>
<polygon class="st1" points="491.49,140.33 502.91,151.8 514.04,140.33 514.04,244.52 503.17,255.04 491.89,243.98 "/>
<g>
	<path class="st2" d="M37.5,65.76c0,0,12.07-28.08,50.45-19.3c0,0-0.44-18.87,22.16-22.16s30.05,12.07,30.05,12.07
		s14.26-4.39,25.01,1.75s16.89,24.35,3.29,37.29c0,0-5.26,6.36-15.79,6.36c0,0-0.22,21.5-21.94,17.99c0,0-7.46-1.75-15.36-7.68
		c0,0-5.48,8.89-25.67,8.07c0,0-10.09-1.26-15.14-12.45c0,0-6.36,1.54-10.53-4.17c-4.17-5.7,0.44-10.97-8.77-17.77
		c0,0-9.05-3.53-15.45,1.34C39.82,67.1,37.43,68.38,37.5,65.76z"/>
	<g>
		<path class="st3" d="M89.24,47.58c-40.35-7.55-49.89,17.69-49.89,17.69s6.39-2.84,10.68-2.16c4.29,0.69,9.09-0.34,12.69,11.83
			s8.02,13.03,12.58,11.15"/>
		<path class="st3" d="M158.22,67.06c1.01-12.61-7.55-13.52-7.55-13.52c-13.52-1.39-19.08,8.55-18.57,11.73
			c0.52,3.18,1.27,15.5,20.35,14.91c19.08-0.6,23.06-16.24,22.46-24.46c-0.6-8.22-8.15-14.7-8.15-14.7
			c-10.54-9.54-27.23-2.58-27.23-2.58c-4.77-10.34-19.68-13.12-19.68-13.12s-31.41-3.18-30.61,24.25c0,0,3.17,16.1,15.3,14.11
			s13.72-11.53,10.74-16.7s-8.35-6.16-13.91-5.17"/>
		<path class="st3" d="M96.9,74.41c-8.87-8.76-18.54-1.71-20.65,2.52c-2.12,4.23-2.01,19.54,15.01,21.51
			c17.03,1.96,23.37-9.02,23.37-9.02s12.59,11.89,25.59,8.36s10.45-17.58,10.45-17.58"/>
	</g>
</g>
<g>
	<path class="st2" d="M36.39,190.76c0,0,16.06-37.39,67.18-25.7c0,0-0.58-25.12,29.5-29.5s40.01,16.06,40.01,16.06
		s18.98-5.84,33.3,2.34c14.31,8.18,22.49,32.42,4.38,49.65c0,0-7.01,8.47-21.03,8.47c0,0-0.29,28.62-29.21,23.95
		c0,0-9.93-2.34-20.45-10.22c0,0-7.3,11.84-34.17,10.74c0,0-13.44-1.68-20.15-16.58c0,0-8.47,2.04-14.02-5.55
		c-5.55-7.59,0.58-14.6-11.68-23.66c0,0-12.05-4.7-20.57,1.78C39.47,192.54,36.29,194.23,36.39,190.76z"/>
	<g>
		<path class="st3" d="M105.28,166.55c-53.73-10.06-66.43,23.55-66.43,23.55s8.51-3.79,14.22-2.87c5.71,0.91,12.1-0.46,16.9,15.75
			c4.79,16.21,10.67,17.35,16.75,14.84"/>
		<path class="st3" d="M197.11,192.48c1.35-16.79-10.06-18-10.06-18c-18-1.85-25.41,11.38-24.72,15.61
			c0.69,4.23,1.69,20.64,27.1,19.85s30.7-21.62,29.91-32.57c-0.79-10.95-10.85-19.57-10.85-19.57c-14.03-12.7-36.26-3.44-36.26-3.44
			c-6.35-13.76-26.2-17.47-26.2-17.47s-41.82-4.23-40.76,32.29c0,0,4.21,21.44,20.37,18.79c16.15-2.65,18.27-15.35,14.3-22.23
			c-3.97-6.88-11.12-8.2-18.53-6.88"/>
		<path class="st3" d="M115.47,202.27c-11.8-11.67-24.68-2.28-27.5,3.35c-2.82,5.63-2.68,26.02,19.99,28.64
			c22.67,2.61,31.12-12,31.12-12s16.77,15.83,34.07,11.13s13.91-23.41,13.91-23.41"/>
	</g>
</g>
<path class="st2" d="M215.63,271.75c0,0,6.03-14.04,25.23-9.65c0,0-0.22-9.43,11.08-11.08c11.3-1.65,15.03,6.03,15.03,6.03
	s7.13-2.19,12.5,0.88c5.37,3.07,8.45,12.17,1.65,18.65c0,0-2.63,3.18-7.9,3.18c0,0-0.11,10.75-10.97,8.99c0,0-3.73-0.88-7.68-3.84
	c0,0-2.74,4.45-12.83,4.03c0,0-5.05-0.63-7.57-6.23c0,0-3.18,0.77-5.26-2.08c-2.08-2.85,0.22-5.48-4.39-8.88
	c0,0-4.53-1.77-7.73,0.67C216.79,272.41,215.59,273.05,215.63,271.75z"/>
<g>
	<path class="st4" d="M241.5,262.65c-20.18-3.78-24.95,8.85-24.95,8.85s3.2-1.42,5.34-1.08c2.14,0.34,4.54-0.17,6.34,5.92
		c1.8,6.09,4.01,6.52,6.29,5.57"/>
	<path class="st4" d="M275.99,272.39c0.51-6.31-3.78-6.76-3.78-6.76c-6.76-0.7-9.54,4.27-9.28,5.86c0.26,1.59,0.64,7.75,10.18,7.45
		c9.54-0.3,11.53-8.12,11.23-12.23c-0.3-4.11-4.07-7.35-4.07-7.35c-5.27-4.77-13.62-1.29-13.62-1.29c-2.39-5.17-9.84-6.56-9.84-6.56
		s-15.7-1.59-15.31,12.13c0,0,1.58,8.05,7.65,7.06c6.07-0.99,6.86-5.76,5.37-8.35c-1.49-2.58-4.17-3.08-6.96-2.58"/>
	<path class="st4" d="M245.33,276.07c-4.43-4.38-9.27-0.86-10.33,1.26s-1.01,9.77,7.51,10.75c8.51,0.98,11.69-4.51,11.69-4.51
		s6.3,5.94,12.79,4.18s5.23-8.79,5.23-8.79"/>
</g>
<path class="st2" d="M300.88,210.25c0,0,8.52-19.82,35.62-13.63c0,0-0.31-13.32,15.64-15.64c15.95-2.32,21.22,8.52,21.22,8.52
	s10.07-3.1,17.66,1.24c7.59,4.34,11.92,17.19,2.32,26.33c0,0-3.72,4.49-11.15,4.49c0,0-0.15,15.18-15.49,12.7
	c0,0-5.27-1.24-10.84-5.42c0,0-3.87,6.28-18.12,5.69c0,0-7.12-0.89-10.69-8.79c0,0-4.49,1.08-7.43-2.94
	c-2.94-4.03,0.31-7.74-6.19-12.54c0,0-6.39-2.49-10.91,0.94C302.52,211.2,300.83,212.1,300.88,210.25z"/>
<g>
	<path class="st4" d="M337.41,197.42c-28.49-5.33-35.22,12.49-35.22,12.49s4.51-2.01,7.54-1.52c3.03,0.48,6.42-0.24,8.96,8.35
		c2.54,8.6,5.66,9.2,8.88,7.87"/>
	<path class="st4" d="M386.11,211.17c0.72-8.9-5.33-9.54-5.33-9.54c-9.54-0.98-13.47,6.03-13.11,8.28
		c0.37,2.25,0.9,10.95,14.37,10.52c13.47-0.42,16.28-11.46,15.86-17.27c-0.42-5.81-5.75-10.38-5.75-10.38
		c-7.44-6.74-19.23-1.82-19.23-1.82c-3.37-7.3-13.89-9.26-13.89-9.26s-22.17-2.25-21.61,17.12c0,0,2.23,11.37,10.8,9.96
		c8.57-1.4,9.69-8.14,7.58-11.79s-5.89-4.35-9.82-3.65"/>
	<path class="st4" d="M342.81,216.36c-6.26-6.19-13.09-1.21-14.58,1.78c-1.49,2.99-1.42,13.8,10.6,15.18
		c12.02,1.39,16.5-6.36,16.5-6.36s8.89,8.39,18.06,5.9s7.38-12.41,7.38-12.41"/>
</g>
<path class="st2" d="M253.2,18.33c0,0,8.52-19.82,35.62-13.63c0,0-0.31-13.32,15.64-15.64s21.22,8.52,21.22,8.52
	s10.07-3.1,17.66,1.24s11.92,17.19,2.32,26.33c0,0-3.72,4.49-11.15,4.49c0,0-0.15,15.18-15.49,12.7c0,0-5.27-1.24-10.84-5.42
	c0,0-3.87,6.28-18.12,5.69c0,0-7.12-0.89-10.69-8.79c0,0-4.49,1.08-7.43-2.94c-2.94-4.03,0.31-7.74-6.19-12.54
	c0,0-6.39-2.49-10.91,0.94C254.84,19.27,253.15,20.17,253.2,18.33z"/>
<g>
	<path class="st4" d="M289.73,5.49c-28.49-5.33-35.22,12.49-35.22,12.49s4.51-2.01,7.54-1.52s6.42-0.24,8.96,8.35
		s5.66,9.2,8.88,7.87"/>
	<path class="st4" d="M338.42,19.25c0.72-8.9-5.33-9.54-5.33-9.54c-9.54-0.98-13.47,6.03-13.11,8.28
		c0.37,2.25,0.9,10.95,14.37,10.52c13.47-0.42,16.28-11.46,15.86-17.27c-0.42-5.81-5.75-10.38-5.75-10.38
		c-7.44-6.74-19.23-1.82-19.23-1.82c-3.37-7.3-13.89-9.26-13.89-9.26s-22.17-2.25-21.61,17.12c0,0,2.23,11.37,10.8,9.96
		c8.57-1.4,9.69-8.14,7.58-11.79c-2.11-3.65-5.89-4.35-9.82-3.65"/>
	<path class="st4" d="M295.13,24.44c-6.26-6.19-13.09-1.21-14.58,1.78c-1.49,2.99-1.42,13.8,10.6,15.18
		c12.02,1.39,16.5-6.36,16.5-6.36s8.89,8.39,18.06,5.9c9.17-2.49,7.38-12.41,7.38-12.41"/>
</g>
<path class="st2" d="M208.95,79.66c0,0,5.07-11.81,21.22-8.12c0,0-0.18-7.94,9.32-9.32s12.64,5.07,12.64,5.07s6-1.85,10.52,0.74
	c4.52,2.58,7.1,10.24,1.38,15.69c0,0-2.21,2.68-6.64,2.68c0,0-0.09,9.04-9.23,7.57c0,0-3.14-0.74-6.46-3.23c0,0-2.31,3.74-10.8,3.39
	c0,0-4.24-0.53-6.37-5.24c0,0-2.68,0.65-4.43-1.75s0.18-4.61-3.69-7.47c0,0-3.81-1.49-6.5,0.56
	C209.92,80.22,208.91,80.76,208.95,79.66z"/>
<g>
	<path class="st5" d="M230.71,72.01c-16.97-3.18-20.99,7.44-20.99,7.44s2.69-1.2,4.49-0.91c1.8,0.29,3.82-0.14,5.34,4.98
		c1.51,5.12,3.37,5.48,5.29,4.69"/>
	<path class="st5" d="M259.72,80.2c0.43-5.31-3.18-5.69-3.18-5.69c-5.69-0.59-8.03,3.6-7.81,4.93s0.53,6.52,8.56,6.27
		c8.03-0.25,9.7-6.83,9.45-10.29c-0.25-3.46-3.43-6.18-3.43-6.18c-4.43-4.01-11.45-1.09-11.45-1.09c-2.01-4.35-8.28-5.52-8.28-5.52
		s-13.21-1.34-12.88,10.2c0,0,1.33,6.77,6.43,5.94s5.77-4.85,4.52-7.02c-1.25-2.17-3.51-2.59-5.85-2.17"/>
	<path class="st5" d="M233.93,83.3c-3.73-3.69-7.8-0.72-8.69,1.06c-0.89,1.78-0.85,8.22,6.31,9.05c7.16,0.83,9.83-3.79,9.83-3.79
		s5.3,5,10.76,3.52c5.47-1.48,4.4-7.4,4.4-7.4"/>
</g>
</svg>
