<?xml version="1.0" encoding="utf-8"?>
<!-- Generator: Adobe Illustrator 25.0.1, SVG Export Plug-In . SVG Version: 6.00 Build 0)  -->
<svg version="1.1" xmlns="http://www.w3.org/2000/svg" xmlns:xlink="http://www.w3.org/1999/xlink" x="0px" y="0px"
	 viewBox="0 0 698.1 354.9" style="enable-background:new 0 0 698.1 354.9;" xml:space="preserve">
<style type="text/css">
	.st0{fill:#0C0C0C;}
	.st1{fill:#FFFFFF;}
	.st2{fill:#6EBD47;}
	.st3{fill:#68BC45;}
	.st4{fill:none;stroke:#FFFFFF;stroke-width:3;stroke-linecap:round;stroke-miterlimit:10;}
	.st5{fill:none;stroke:#FFFFFF;stroke-width:2;stroke-linecap:round;stroke-miterlimit:10;}
	.st6{fill:none;stroke:#FFFFFF;stroke-linecap:round;stroke-miterlimit:10;}
</style>
<g id="Layer_1">
	<rect class="st0" width="697.9" height="354.9"/>
	<polygon class="st1" points="503.4,88.2 513.4,78 513.1,35.9 492.1,35.9 492.1,78 	"/>
	<polygon class="st2" points="502.9,109.6 534.6,77.5 534.6,56.4 555.4,56.4 555.1,192.3 534.6,213 533.6,100.1 503.2,130.8 
		471.1,98.4 470.8,213.5 450.3,192.9 450,56.4 471.1,56.4 471,77.5 	"/>
	<polygon class="st1" points="491.5,140.3 502.9,151.8 514,140.3 514,244.5 503.2,255 491.9,244 	"/>
	<rect x="0.2" y="351.8" class="st3" width="697.9" height="3"/>
	<g>
		
			<image style="overflow:visible;" width="1024" height="769" id="slf58E_1_" xlink:href="46E04984F4002D72.jpg"  transform="matrix(0.4451 0 0 0.4451 -201.0496 670.7553)">
		</image>
	</g>
</g>
<g id="Layer_2">
	<g>
		<path class="st2" d="M37.5,65.8c0,0,12.1-28.1,50.5-19.3c0,0-0.4-18.9,22.2-22.2s30.1,12.1,30.1,12.1s14.3-4.4,25,1.8
			s16.9,24.3,3.3,37.3c0,0-5.3,6.4-15.8,6.4c0,0-0.2,21.5-21.9,18c0,0-7.5-1.8-15.4-7.7c0,0-5.5,8.9-25.7,8.1
			c0,0-10.1-1.3-15.1-12.5c0,0-6.4,1.5-10.5-4.2c-4.2-5.7,0.4-11-8.8-17.8c0,0-9.1-3.5-15.5,1.3C39.8,67.1,37.4,68.4,37.5,65.8z"/>
		<g>
			<path class="st4" d="M89.2,47.6C48.9,40,39.3,65.3,39.3,65.3s6.4-2.8,10.7-2.2c4.3,0.7,9.1-0.3,12.7,11.8s8,13,12.6,11.1"/>
			<path class="st4" d="M158.2,67.1c1-12.6-7.6-13.5-7.6-13.5c-13.5-1.4-19.1,8.5-18.6,11.7c0.5,3.2,1.3,15.5,20.4,14.9
				c19.1-0.6,23.1-16.2,22.5-24.5c-0.6-8.2-8.1-14.7-8.1-14.7c-10.5-9.5-27.2-2.6-27.2-2.6c-4.8-10.3-19.7-13.1-19.7-13.1
				s-31.4-3.2-30.6,24.3c0,0,3.2,16.1,15.3,14.1s13.7-11.5,10.7-16.7s-8.3-6.2-13.9-5.2"/>
			<path class="st4" d="M96.9,74.4c-8.9-8.8-18.5-1.7-20.7,2.5c-2.1,4.2-2,19.5,15,21.5c17,2,23.4-9,23.4-9s12.6,11.9,25.6,8.4
				s10.5-17.6,10.5-17.6"/>
		</g>
	</g>
	<g>
		<path class="st2" d="M36.4,190.8c0,0,16.1-37.4,67.2-25.7c0,0-0.6-25.1,29.5-29.5s40,16.1,40,16.1s19-5.8,33.3,2.3
			c14.3,8.2,22.5,32.4,4.4,49.7c0,0-7,8.5-21,8.5c0,0-0.3,28.6-29.2,24c0,0-9.9-2.3-20.4-10.2c0,0-7.3,11.8-34.2,10.7
			c0,0-13.4-1.7-20.2-16.6c0,0-8.5,2-14-5.5c-5.5-7.6,0.6-14.6-11.7-23.7c0,0-12.1-4.7-20.6,1.8C39.5,192.5,36.3,194.2,36.4,190.8z"
			/>
		<g>
			<path class="st4" d="M105.3,166.5c-53.7-10.1-66.4,23.6-66.4,23.6s8.5-3.8,14.2-2.9c5.7,0.9,12.1-0.5,16.9,15.8
				c4.8,16.2,10.7,17.4,16.8,14.8"/>
			<path class="st4" d="M197.1,192.5c1.3-16.8-10.1-18-10.1-18c-18-1.9-25.4,11.4-24.7,15.6c0.7,4.2,1.7,20.6,27.1,19.8
				s30.7-21.6,29.9-32.6c-0.8-10.9-10.9-19.6-10.9-19.6c-14-12.7-36.3-3.4-36.3-3.4c-6.4-13.8-26.2-17.5-26.2-17.5
				s-41.8-4.2-40.8,32.3c0,0,4.2,21.4,20.4,18.8c16.2-2.6,18.3-15.4,14.3-22.2c-4-6.9-11.1-8.2-18.5-6.9"/>
			<path class="st4" d="M115.5,202.3c-11.8-11.7-24.7-2.3-27.5,3.4c-2.8,5.6-2.7,26,20,28.6c22.7,2.6,31.1-12,31.1-12
				s16.8,15.8,34.1,11.1s13.9-23.4,13.9-23.4"/>
		</g>
	</g>
	<path class="st2" d="M215.6,271.7c0,0,6-14,25.2-9.7c0,0-0.2-9.4,11.1-11.1c11.3-1.6,15,6,15,6s7.1-2.2,12.5,0.9
		c5.4,3.1,8.4,12.2,1.6,18.6c0,0-2.6,3.2-7.9,3.2c0,0-0.1,10.7-11,9c0,0-3.7-0.9-7.7-3.8c0,0-2.7,4.4-12.8,4c0,0-5-0.6-7.6-6.2
		c0,0-3.2,0.8-5.3-2.1c-2.1-2.9,0.2-5.5-4.4-8.9c0,0-4.5-1.8-7.7,0.7C216.8,272.4,215.6,273.1,215.6,271.7z"/>
	<g>
		<path class="st5" d="M241.5,262.7c-20.2-3.8-24.9,8.8-24.9,8.8s3.2-1.4,5.3-1.1c2.1,0.3,4.5-0.2,6.3,5.9c1.8,6.1,4,6.5,6.3,5.6"/>
		<path class="st5" d="M276,272.4c0.5-6.3-3.8-6.8-3.8-6.8c-6.8-0.7-9.5,4.3-9.3,5.9c0.3,1.6,0.6,7.8,10.2,7.5
			c9.5-0.3,11.5-8.1,11.2-12.2c-0.3-4.1-4.1-7.3-4.1-7.3c-5.3-4.8-13.6-1.3-13.6-1.3c-2.4-5.2-9.8-6.6-9.8-6.6s-15.7-1.6-15.3,12.1
			c0,0,1.6,8.1,7.6,7.1c6.1-1,6.9-5.8,5.4-8.3c-1.5-2.6-4.2-3.1-7-2.6"/>
		<path class="st5" d="M245.3,276.1c-4.4-4.4-9.3-0.9-10.3,1.3s-1,9.8,7.5,10.8c8.5,1,11.7-4.5,11.7-4.5s6.3,5.9,12.8,4.2
			s5.2-8.8,5.2-8.8"/>
	</g>
	<path class="st2" d="M300.9,210.3c0,0,8.5-19.8,35.6-13.6c0,0-0.3-13.3,15.6-15.6c16-2.3,21.2,8.5,21.2,8.5s10.1-3.1,17.7,1.2
		c7.6,4.3,11.9,17.2,2.3,26.3c0,0-3.7,4.5-11.2,4.5c0,0-0.2,15.2-15.5,12.7c0,0-5.3-1.2-10.8-5.4c0,0-3.9,6.3-18.1,5.7
		c0,0-7.1-0.9-10.7-8.8c0,0-4.5,1.1-7.4-2.9c-2.9-4,0.3-7.7-6.2-12.5c0,0-6.4-2.5-10.9,0.9C302.5,211.2,300.8,212.1,300.9,210.3z"/>
	<g>
		<path class="st5" d="M337.4,197.4c-28.5-5.3-35.2,12.5-35.2,12.5s4.5-2,7.5-1.5c3,0.5,6.4-0.2,9,8.4c2.5,8.6,5.7,9.2,8.9,7.9"/>
		<path class="st5" d="M386.1,211.2c0.7-8.9-5.3-9.5-5.3-9.5c-9.5-1-13.5,6-13.1,8.3c0.4,2.2,0.9,10.9,14.4,10.5
			c13.5-0.4,16.3-11.5,15.9-17.3c-0.4-5.8-5.8-10.4-5.8-10.4c-7.4-6.7-19.2-1.8-19.2-1.8c-3.4-7.3-13.9-9.3-13.9-9.3
			s-22.2-2.2-21.6,17.1c0,0,2.2,11.4,10.8,10c8.6-1.4,9.7-8.1,7.6-11.8s-5.9-4.4-9.8-3.6"/>
		<path class="st5" d="M342.8,216.4c-6.3-6.2-13.1-1.2-14.6,1.8c-1.5,3-1.4,13.8,10.6,15.2c12,1.4,16.5-6.4,16.5-6.4
			s8.9,8.4,18.1,5.9s7.4-12.4,7.4-12.4"/>
	</g>
	<path class="st2" d="M253.2,18.3c0,0,8.5-19.8,35.6-13.6c0,0-0.3-13.3,15.6-15.6s21.2,8.5,21.2,8.5s10.1-3.1,17.7,1.2
		s11.9,17.2,2.3,26.3c0,0-3.7,4.5-11.2,4.5c0,0-0.2,15.2-15.5,12.7c0,0-5.3-1.2-10.8-5.4c0,0-3.9,6.3-18.1,5.7c0,0-7.1-0.9-10.7-8.8
		c0,0-4.5,1.1-7.4-2.9c-2.9-4,0.3-7.7-6.2-12.5c0,0-6.4-2.5-10.9,0.9C254.8,19.3,253.1,20.2,253.2,18.3z"/>
	<g>
		<path class="st5" d="M289.7,5.5C261.2,0.2,254.5,18,254.5,18s4.5-2,7.5-1.5s6.4-0.2,9,8.4s5.7,9.2,8.9,7.9"/>
		<path class="st5" d="M338.4,19.2c0.7-8.9-5.3-9.5-5.3-9.5c-9.5-1-13.5,6-13.1,8.3c0.4,2.2,0.9,10.9,14.4,10.5
			c13.5-0.4,16.3-11.5,15.9-17.3c-0.4-5.8-5.8-10.4-5.8-10.4C337-5.9,325.2-1,325.2-1c-3.4-7.3-13.9-9.3-13.9-9.3
			s-22.2-2.2-21.6,17.1c0,0,2.2,11.4,10.8,10c8.6-1.4,9.7-8.1,7.6-11.8c-2.1-3.6-5.9-4.4-9.8-3.6"/>
		<path class="st5" d="M295.1,24.4c-6.3-6.2-13.1-1.2-14.6,1.8c-1.5,3-1.4,13.8,10.6,15.2c12,1.4,16.5-6.4,16.5-6.4
			s8.9,8.4,18.1,5.9c9.2-2.5,7.4-12.4,7.4-12.4"/>
	</g>
	<path class="st2" d="M208.9,79.7c0,0,5.1-11.8,21.2-8.1c0,0-0.2-7.9,9.3-9.3s12.6,5.1,12.6,5.1s6-1.8,10.5,0.7
		c4.5,2.6,7.1,10.2,1.4,15.7c0,0-2.2,2.7-6.6,2.7c0,0-0.1,9-9.2,7.6c0,0-3.1-0.7-6.5-3.2c0,0-2.3,3.7-10.8,3.4c0,0-4.2-0.5-6.4-5.2
		c0,0-2.7,0.6-4.4-1.8s0.2-4.6-3.7-7.5c0,0-3.8-1.5-6.5,0.6C209.9,80.2,208.9,80.8,208.9,79.7z"/>
	<g>
		<path class="st6" d="M230.7,72c-17-3.2-21,7.4-21,7.4s2.7-1.2,4.5-0.9c1.8,0.3,3.8-0.1,5.3,5c1.5,5.1,3.4,5.5,5.3,4.7"/>
		<path class="st6" d="M259.7,80.2c0.4-5.3-3.2-5.7-3.2-5.7c-5.7-0.6-8,3.6-7.8,4.9s0.5,6.5,8.6,6.3c8-0.3,9.7-6.8,9.4-10.3
			c-0.3-3.5-3.4-6.2-3.4-6.2c-4.4-4-11.5-1.1-11.5-1.1c-2-4.3-8.3-5.5-8.3-5.5s-13.2-1.3-12.9,10.2c0,0,1.3,6.8,6.4,5.9
			s5.8-4.8,4.5-7c-1.3-2.2-3.5-2.6-5.9-2.2"/>
		<path class="st6" d="M233.9,83.3c-3.7-3.7-7.8-0.7-8.7,1.1c-0.9,1.8-0.8,8.2,6.3,9c7.2,0.8,9.8-3.8,9.8-3.8s5.3,5,10.8,3.5
			c5.5-1.5,4.4-7.4,4.4-7.4"/>
	</g>
</g>
</svg>
