<?xml version="1.0" encoding="utf-8"?>
<!-- Generator: Adobe Illustrator 25.0.1, SVG Export Plug-In . SVG Version: 6.00 Build 0)  -->
<svg version="1.1" id="Layer_1" xmlns="http://www.w3.org/2000/svg" xmlns:xlink="http://www.w3.org/1999/xlink" x="0px" y="0px"
	 viewBox="0 0 612 792" style="enable-background:new 0 0 612 792;" xml:space="preserve">
<style type="text/css">
	.st0{fill:#6A9BD2;stroke:#074872;stroke-miterlimit:10;}
	.st1{fill:#6897D0;stroke:#6897D0;stroke-miterlimit:10;}
	.st2{fill:#2C71B9;stroke:#2C71B9;stroke-miterlimit:10;}
	.st3{fill:#F7F8F8;stroke:#FFFFFF;stroke-miterlimit:10;}
	.st4{fill:#103356;stroke:#103356;stroke-miterlimit:10;}
	.st5{fill:#436BB4;stroke:#436BB4;stroke-miterlimit:10;}
	.st6{fill:#2B58A8;stroke:#2B58A8;stroke-miterlimit:10;}
</style>
<rect x="-224.69" y="-163.47" class="st0" width="1180.22" height="955.47"/>
<path class="st1" d="M152.64,401.5c-8.56,65.82,44.8,154.34,44.8,154.34c7.92,35.64,23.77,44.13,23.77,44.13v9l5.96,2.14
	l24.18,12.36l14.14,10l15.82,13.9l16.11,17.96l14.11,12.93l16.16,13.19l9.66,5.48l16.78,9.19l18.38,12.3L386,729.95l8.24,11.88
	l9.7,8.06l9.6,13.02l8.36,9.89l18.78-46.55l27.88-57.54c0,0,11.96-11.26,26.73-16.18c0,0,30.25-11.96,47.84-36.58l8.44-28.14
	c0,0,5.63-58.39-4.22-66.13c0,0,7.74-21.1-10.55-26.73c0,0,9.85-19.7,0-32.36c0,0-11.96-13.37-23.22-17.59c0,0-0.17-36.18-7.52-45.8
	c-7.36-9.62-49.51-62.9-80.06-80.44c0,0-6.16-27.19-41.04-32.46S211.21,265.92,152.64,401.5z"/>
<path class="st2" d="M394.71,412.51c0,0,16.07-30.47,36.57-34.91c20.5-4.43,47.65,13.3,47.65,13.3s14.96-0.55,27.15,8.31l2.62,5.24
	l2.09,8.06l1.98,15.1l0.83,17.39l-16.39-13.11c0,0-7.2-11.64-17.18-3.32c-9.97,8.31-20.55,13.3-20.55,13.3s-15.46,1.66-25.99-7.2
	c0,0,5.54-9.97,8.31-12.19c0,0-14.96-4.99-42.66,0l10.53-11.53C409.67,410.95,400.8,410.85,394.71,412.51z"/>
<path class="st2" d="M503.3,452.4c0,0-21.05,17.18-6.65,17.73c0,0,37.82-17.34,42.73-3.13l1.49,5.45v8.7l-2.85,10.95
	c0,0-14.23-2.03-19.22-5.35s-19.95-1.66-19.95-1.66s-13.85-2.96-16.07-12.84C480.58,462.37,478.92,457.94,503.3,452.4z"/>
<path class="st2" d="M449.27,386.65l-5.53,2.37v13.03c0,0,11.45-1.58,22.12,6.71C465.85,408.77,467.26,395.7,449.27,386.65z"/>
<path class="st2" d="M552.45,537.65c0,0-9.64-20.83-32.85-7.09c-23.22,13.74-26.06,3.79-26.06,3.79s-5.21-10.9,0-19.43
	c0,0-12.32,2.53-17.53,11.45c0,0-81.66,12.62-111.82,9.39c-17.98-1.93-41.22-17.53-41.22-17.53s-22.27,21.8-18.01,56.38
	c0,0,32.7,95.7,54.49,135.04l8.19,5.48l8.32,6.21l10.04,8.6l8.72,10.07l8.38,9.17l12.83,16.54l5.97,7.07l18.78-46.55l25.93-53.51
	l7.04-8.25l14-8.78l15.9-7.06l14.98-9.07l16.73-14.19l8.02-9.93l4.5-15l5.4-16.84L552.45,537.65z"/>
<path class="st2" d="M546.07,606.21c0,0,0.46-16.42-5.19-18.32c-5.65-1.9-9.44-5.69-26.97,5.21c0,0-9.95,0.42-11.85-3.32
	c-12.73-25.08,35.54-36.48,35.54-36.48s13.16-5.69,15.58,30.32L546.07,606.21z"/>
<path class="st2" d="M242.49,484.65c0,0-7.96-7.27-6.23-19.04c1.73-11.77,21.81-13.85,25.97-8.66c4.15,5.19,6.92,12.51,6.92,12.51
	l-4.85,2.79l-7.96-2.79c0,0,0.69-3.85-1.38-6.28C252.87,460.76,239.72,465.26,242.49,484.65z"/>
<path class="st2" d="M261.53,495.73c-3.12-5.54,0-14.54,0-14.54l10.39-8.93v7.2l-7.96,10.73l3.81,8.66L261.53,495.73z"/>
<path class="st2" d="M281.26,484.65l-5.19,14.19c0,0,11.42-1.38,16.96,2.42l5.54-2.42l-2.08-8.66
	C296.49,490.19,285.42,494.34,281.26,484.65z"/>
<path class="st2" d="M547.36,521.69c-8.5-12.26-24.55-6.77-24.55-6.77c-5.35,0.41-9.22-4.3-9.22-4.3s7.76-7.78,15.05-7.78
	c0,0,19.42-3.81,20.34,9.42L547.36,521.69z"/>
<polyline class="st3" points="432.06,417.64 446.17,420.32 458.79,420.32 452.94,412.06 437.28,408.77 423.69,414.54 432.06,417.64 
	"/>
<path class="st4" d="M433.08,418.51l-4.28-3.66l14.94-1.66l2.43,7.98c0,0,7.86,0.66,16.83,5.65v-10.31h6.32
	c0,0-17.62-13.5-38.9-7.75l-17.91,6.42L433.08,418.51z"/>
<path class="st4" d="M229.21,488.91c0,0-14.07-20.92,3.95-36.5s38.75,0,38.75,0l47.34,6.7l12.73-25.45c0,0-26.16-62.21,24.74-66.46
	c0,0-21.21-42.42-35.35-52.32c0,0,45.97-18.37,104.64,3.9l-5.11-11.02l-11.01-11.62l-15.18-7.59l-18.19-3.38l-24.07-1.93h-21.62
	l-17.45,1.27l-18.19,2.63l-19.11,4.41l-23.49,8.09l-23.07,11.54l-14.21,9.36l-12.93,10.43l-14.59,14.56l-19.33,25.78l-14.13,26.41
	l-2.61,13.24l1.56,26.93l7.62,34.37l14.56,39.76l12.53,26.54l9.46,17.29l6.24,20.06l10,17.13l7.53,6.94c0,0,17.44-12.9,25.22-37.64
	C246.43,562.32,225.25,525.41,229.21,488.91z"/>
<path class="st4" d="M412.51,388.8c0,0,45.79-14.37,63.46,8.91c0,0,4.98-7.06,3.62-16.57c0,0-27.3-19.48-50.79-8.15
	C428.8,372.98,416.59,381.17,412.51,388.8z"/>
<path class="st4" d="M512.14,422.9c-0.58-4.29-8.62-8.8-8.62-8.8s2.41-8.25,1.39-16.4c0,0,7.25,6.11,8.68,11.06
	C515.03,413.72,512.14,422.9,512.14,422.9z"/>
<path class="st5" d="M455,792l-9.84-23.22l14.32-12.53l-18.79-30L421,775.05c0,0-13.42-24.16-25.05-33.11
	c0,0-12.53-23.26-65.32-48.32c0,0-29.53-21.47-41.16-37.58c0,0-38.47-46.53-90.37-51.9c0,0-18.79-0.89-33.11,27.74
	c0,0-72.99,8.05-107.18,28.63V792"/>
<path class="st6" d="M407.51,792c0,0-35.07-35.03-76.5-44.45c0,0-33.93-12.4-15.96-17.72c17.96-5.32,80.49,32.59,80.49,32.59
	s-2.36-6.13-5.8-11.45c-3.44-5.32,0.23-9.92,6.22-9.03l-3.06-4.38l-5.61-6.33l-7.44-6.94l-6.49-5.26l-10.31-7.33l-8.89-5.59
	l-13.59-7.56l-9.93-4.93l-10.48-8.06l-14.52-12.33l-8.21-7.92l-16.11-17.96l-15.82-13.9l-9.72-7.1c0,0-38.06-18.22-31.48,11.07
	c0,0,42.44,8.97,58.58,25.7c0,0-2.99,23.91-0.6,31.68c0,0-88.28-77.11-223.46,8.97v13.75c0,0,41.15-35.27,98.53-38.25
	s86.07,11.36,86.07,11.36l11.95,7.44h-8.97c0,0-125.34-37.33-187.59,30.81v18.23c0,0,38.71-41.24,102.57-43.9
	S325.5,741.09,340.56,792"/>
</svg>
