<?xml version="1.0" encoding="utf-8"?>
<!-- Generator: Adobe Illustrator 25.0.1, SVG Export Plug-In . SVG Version: 6.00 Build 0)  -->
<svg version="1.1" id="Layer_1" xmlns="http://www.w3.org/2000/svg" xmlns:xlink="http://www.w3.org/1999/xlink" x="0px" y="0px"
	 viewBox="0 0 612 792" style="enable-background:new 0 0 612 792;" xml:space="preserve">
<style type="text/css">
	.st0{fill:#135F30;}
	.st1{fill:#3CB54A;stroke:#3BB54A;stroke-miterlimit:10;}
	.st2{fill:#159447;stroke:#159446;stroke-miterlimit:10;}
	.st3{fill:#1A6132;stroke:#196131;stroke-miterlimit:10;}
	.st4{fill:#227E3F;stroke:#217D3E;stroke-miterlimit:10;}
	.st5{fill:#227E3F;stroke:#237F3F;stroke-miterlimit:10;}
	.st6{fill:#185129;stroke:#175128;stroke-miterlimit:10;}
	.st7{fill:#FFFFFF;stroke:#FFFFFF;stroke-miterlimit:10;}
	.st8{fill:#132718;stroke:#102716;stroke-miterlimit:10;}
</style>
<rect x="-296.77" y="-210.52" class="st0" width="1221.83" height="1002.52"/>
<path class="st1" d="M24.19,570.46l7.8-4.44l15.79-11.83c0,0,19.94-9.12,21.6-9.12c0,0,6.37-7.64,9.14-8.38
	c2.77-0.74,14.13-2.71,14.13-2.71l6.09-3.7l18.56-3.94l6.09,1.73c0,0,8.59-9.12,25.48-5.67c0,0,6.65-4.93,12.46-5.92
	c5.82-0.99,9.14,0,9.14,0s25.76-11.83,40.99-12.32l5.26-3.7l14.68-2.22l8.59-5.18l4.43-1.48l2.77-2.96l4.71,1.23l4.43-3.2
	c0,0,4.15-47.33,2.22-57.19c0,0-10.15-16.35-9.15-42.69c0,0-8.64,2.3-14.96-6.84c0,0-2.99-16.53-1-21.86c0,0-4.32-19.53-3.66-24.26
	c0.66-4.73,5.65-11.83,8.64-13.31c2.99-1.48,8.98-1.18,10.31,0c0,0-4.32-34.91,7.31-63.32s39.56-58.88,39.56-58.88v-7.1l5.98,2.37
	l-1.66-12.13c0,0,16.29-14.5,20.61-14.5s4.99,2.96,4.99,2.96l6.98-7.99l11.97-3.25v3.55c0,0,7.98-5.92,20.95-5.62
	c12.97,0.3,15.29,3.55,15.29,3.55l17.29-3.56c0,0,9.97,1.79,12.63,5.34c2.66,3.55,2.66,3.55,2.66,3.55l10.97-1.18l4.32,3.55
	c0,0,16.29,0,25.27,4.44c8.98,4.44,14.96,11.24,13.96,12.72l-9.31-0.3c0,0,13.63,2.66,13.96,12.13c0,0-10.31-1.78-16.29-0.59
	c0,0,19.95,3.25,23.27,17.46l-2.66,7.4l3.99,11.83l-1.66,6.81c0,0,11.3,22.78,12.97,29.88c1.66,7.1-1.66,46.45-16.62,81.66
	c0,0,10.64-2.07,11.3,7.99c0.66,10.06-7.31,25.74-7.31,25.74s-4.99,25.15-8.98,29.29c-3.99,4.14-9.97,2.96-9.97,2.96
	s-12.3,31.66-23.94,46.75c0,0-4.65,26.04-1,36.69c0,0,17.29,6.51,20.28,9.76c0,0,12.63,3.25,12.97,4.14
	c0.33,0.89,21.06,4.44,23.66,12.13l27.54,8.28c0,0,16.28-0.89,22.27,2.37V789.8H24.19V570.46z"/>
<path class="st2" d="M251.91,488.86c0,0-9.04,6.14-9.73,9.18c-0.68,3.04,1.59,30.59,15.02,46.59c13.43,16,60.55,50.24,69.2,52.47
	c8.65,2.23,72.4-9.73,98.11-50.44c0,0,15-25.28,13.65-45.97l7.56,3.15l10.14,5.61l8.83,2.48l8.4,3.08l9.26,3.06l7.92,4.51l2.22,3.15
	l8.08,2.43l13.5,4.06l5.95,1.79l7.85-0.07l10.53,1.1l3.88,1.34V788.8H24.19V569.46l6.23-3.55l7.09-5.03l7.69-5.76l7.78-4.28
	l9.77-4.28l6.64-2.49l5.77-6.09l3.37-2.29l8.48-1.7l5.65-1.01l5.45-3.31l15.23-3.49l3.97-0.84l6.09,1.73l5.17-3.55l4.94-1.87
	l8.97-1.01l6.4,0.76l6.56-3.9l8.4-2.34l6.64,0.32l6.89-2.94l13.87-5.08l14.42-3.68l5.08-0.59l6.01-3.73l14.68-2.22l8.59-5.18
	l4.43-1.48l2.77-2.96L251.91,488.86z"/>
<path class="st3" d="M365.26,648.09h-13.18l-19.78,22.98l-4.39,96.79c0,0,42.45-117.73,104.27-186.83c0,0,26.37-29.72,27.61-70.47
	l-1.78-0.5c0,0-6.09,43.29-25.99,62.94c-19.9,19.65-39.26,29.84-77.98,35.91c0,0-36.42,0.54-52.54-7.03l-5.82-5.58
	c0,0,14.11,7.97,35.38,8.97c21.28,1,65.39-15.55,74.8-22.92c9.41-7.37,29.79-27.3,32.7-32.29c2.91-4.98,3.24-30.62-2.97-29.46
	L430,535.82l-8.68,15.51l-7.99,9.23l-9.17,8.08l-13.29,8.95l-11.17,5.86l-8.73,3.79l-16.15,5.52l-11.64,2.85l-14.37,1.74l-4.3-0.96
	c0,0-4.65,1.1-8.91,1.1s-26.42-10.56-32.36-18.73c0,0,3.69,11.96,5.93,14.75c0,0-29.11-10.96-43.22-27.1c0,0,18.14,27.3,51.96,40.26
	c33.82,12.95,64.05,7.97,64.05,7.97s37.85-9.57,52.63-22.32C414.6,592.32,398.44,620.39,365.26,648.09z"/>
<path class="st3" d="M473.1,515.02c0,0,2.01,7.86,0,16.57s-60.69,93.99-66.07,111.39c0,0,58.13-55.7,66.96-62.22
	c0,0-2.91-19.15,3.45-31.33c6.36-12.18,6.89-26.14,4.91-31.35L473.1,515.02z"/>
<path class="st3" d="M483.38,596.63c0,0-4.08,19.25-11.5,31.9c-7.42,12.65-6.18,54.45-6.18,54.45l14.83-17.6
	c0,0-1.72-15.95,2.85-25.57C487.95,630.18,494.26,596.08,483.38,596.63z"/>
<path class="st3" d="M527.16,533.96c0,0,4.77,7.03,4.77,13.28c0,6.25-19.05,76.25-15.35,94.29c0,0,12.17-26.22,17.2-31.27
	c0,0-4.76-19.48,0-39.45c4.76-19.97,7.14-28.28,0-36.27L527.16,533.96z"/>
<path class="st3" d="M542.36,697.24c0,0-48.12,72.98-48.12,91.56h48.12v-40.39c0,0-14.02,18.63-15.16,27.26
	c-1.14,8.62,3.92-43.94,15.16-65.64V697.24z"/>
<path class="st3" d="M101.13,528.78c0,0,5.42,56.18,0,124.78c-5.42,68.6,8.64,135.24,8.64,135.24h5.82c0,0-18.67-112.3-10.68-145.82
	c7.99-33.53,2.59-107.36,2.83-115.51L101.13,528.78z"/>
<path class="st3" d="M96.11,530.88c5.09,23.13-2.59,92.55-2.59,92.55s0.7-82.48-6.52-89.44l5.65-1.01L96.11,530.88z"/>
<path class="st3" d="M49.84,552.57c0,0,26.32,25.26,26.72,37.89c0,0,6.89-12.99,6.89-18.95C83.46,571.52,68.14,555.46,49.84,552.57z
	"/>
<path class="st3" d="M70.88,658.13v4.51c0,0-28.65-37.92-33.91-53.69c0,0-5.03-8.74-12.78-13.11l0-9.68c0,0,9.09,3.75,11.73,6.87
	c0,0-2.11-8.02,0-15.87c0,0,4.56,21.81,8.25,29.93C47.85,615.2,44.39,617.57,70.88,658.13z"/>
<path class="st3" d="M43.86,571.52c0,0,1.01,5.93,2.01,7.72c1.01,1.79,21.53,31.33,25.01,50.42c0,0,1.3-24.65,3.49-31.93
	C74.37,597.74,54.43,579.15,43.86,571.52z"/>
<path class="st3" d="M35.11,616.84c0,0,13.86,10.39,16.95,15.15c0,0-1.67-8.01-3.33-9.95l-13.62-12.55V616.84z"/>
<path class="st3" d="M64.85,670.71l1.8,3.89c0,0-30.35-17.96-42.46-23.58v-4.33C24.19,646.7,61.44,668.12,64.85,670.71z"/>
<path class="st3" d="M73.35,699.49l3.89,16.88c-5.59-18.61-53.05-43.06-53.05-43.06v-5.84C24.19,667.47,65.82,693,73.35,699.49z"/>
<path class="st3" d="M79.68,694.3l-1.22,4.76c0,0,5.35,33.32,1.22,57.55C79.68,756.61,90.37,718.31,79.68,694.3z"/>
<path class="st3" d="M220.09,511.53c0,0,2.84,74.76,16.23,114.12c0,0-7.3-67.43-5.28-73.08c1.83,2.2,11.25,9.44,11.25,9.44
	S224.45,531.98,220.09,511.53z"/>
<path class="st3" d="M189.43,574.7c1.27-20.12,19.89-58.09,19.89-58.09s-9.53,78.93-9.95,116.18
	C199.38,632.8,188.19,594.44,189.43,574.7z"/>
<path class="st4" d="M323.32,320.96c0,0,11.14,0.69,13.48-0.69c2.33-1.38,5.7,2.77,5.7,3.92s-0.78,15.92-9.59,28.37
	c0,0,15.03-8.76,16.85-11.3c0,0,7-9,11.92-11.76c0,0-0.52-1.15-2.85-1.38c-1.86-0.18-1.04-13.61,0.26-15.92
	c1.3-2.31,4.92-20.3,4.92-20.3c0.78-5.54-0.26-14.99-3.63-18.68s-23.33,1.38-23.33,1.38s-15.81,6-10.63,8.76s3.11,11.3,3.11,11.3
	h-6.22c7.78,2.31,2.33,7.61,2.33,7.61l4.15,12.92C329.8,315.2,328.25,318.66,323.32,320.96"/>
<path class="st4" d="M380.86,328.35c0,0,12.7,13.15,14,22.6c0,0,8.03,5.77,7.52,11.76c0,0,1.3-7.84-2.07-15.68
	c0,0-2.85-13.84-0.78-14.53c2.07-0.69,27.73,10.84,40.43,9.23c12.7-1.61,16.59-6.92,16.59-6.92s-5.44-9.69-17.11-14.53
	c0,0,2.27,5.33,0.3,6.2l-15.95-0.18l-8.47-10.87c0,0-0.13-3.33,3.38-4.21c0,0,1.15-15.6,7.05-15.07c5.91,0.53-0.98-7.36-0.98-7.36
	s-7.29-1.93-23.44-4.73c0,0-10.64-1.94-13.2-12.19c0,0-5.32,16.92-3.74,35.32S380.86,328.35,380.86,328.35z"/>
<path class="st4" d="M312.11,295.8c0,0-6.5,4.21-1.97,7.54c4.53,3.33,0.18,10.52,0.18,10.52s-3.73,3.33-5.7,5.61
	s-22.45-4.85-22.45-7.25s8.86-11.68,8.86-11.68S297.34,296.94,312.11,295.8z"/>
<path class="st4" d="M298.76,409.17c-0.32-19.02,19.78-34.07,19.78-34.07s-15.63,8.8-18.5,15.05
	C297.17,396.39,298.76,409.17,298.76,409.17z"/>
<path class="st4" d="M364.26,402.83c0,0-10.24,4.62-6.4,10.01c0,0-26.74-2.88-39.32-7.73c-12.58-4.85,6.61-2.29,6.61-2.29
	l14.12-6.16c0,0,9.71-4.23,16.58-4.54c6.87-0.31,11.31,1.61,11.31,1.61s8.48-2.19,11.11-1.61c2.63,0.59,22.62,8.39,31.1,19.22
	C409.35,411.36,378.73,402.52,364.26,402.83z"/>
<path class="st5" d="M259.4,311.12c0,0-0.22,24.77,0,20.16c0.18-3.91,8.28-10.08,8.28-10.08s-9.98,31.49,0,85.85
	c0,0,16.68,49.78,25.43,59.74l-5.18-0.14c0,0-26.99-27.3-29.36-39.28l-3.47-7.35l-2.71-8.28l-2.07-10.01l-0.95-15.13v-3.24
	c0,0-1.34-8.24-4.97-9.37l1.47-10.09l-3.29,3.5l-6.42-5.8c0,0,5.8,2.28,8.3-1.96l0.31-16.23l5.48-1.25l-3.6-9.9
	c0,0-6.58-0.42-7.05,3.07l-6.58-0.84l2.51-10.46l3.92,0.98l2.82,2.51c0,0,8.46,2.73,10.03,1.6L259.4,311.12z"/>
<path class="st5" d="M408.14,469.29c0,0,25.17-22.85,30.46-36.51c5.29-13.66,23.91-58.46,24.92-73.92c0,0,5.54-13.44,12.84-32.26
	c0,0-2.01,27.22-1.51,30.52l8.56-1.18c0,0,4.03,5.82,0,10.08l-9.06-2.43l3.52,8.93l-0.25,8.74l-6.04-4.7l-4.28,13.66l6.04,3.52
	l-6.54,2.53c0,0-1.73,9.12-6.26,20l-3.99,9.62l-6.99,15.16l-5.28,10.05l-7.68,11.92c0,0-18.73,13.9-27.24,17.93
	c-8.51,4.03-4.99-6.5-4.99-6.5L408.14,469.29z"/>
<path class="st5" d="M256.34,485.66l-5.51,24.4l5.51,16.23c0,0,8.49-17.39,9.07-22.06c0.58-4.67,0-46.45,0-46.45s5.83-0.52,7,2.08
	c1.17,2.59,8.16,40.22,19.24,46.45c11.08,6.23,13.41,3.75,13.41,3.75s0.58-25.8,11.37-25.29c10.79,0.52,56.27,11.16,56.27,11.16
	s5.25,20.5,0,41.26c0,0,47.82-57.6,46.36-65s-32.36,7.65-32.36,7.65l-29.74,5.97l-31.49-8.56l-25.95-10.46l-15.62-9.04l-15.87-19.16
	l-8.7-8.65l-1.06,29.13L256.34,485.66z"/>
<path class="st6" d="M330.36,286.1c0,0,0.37,6.76-0.82,8.57c0,0,14.83,5.87,15.41,8.98c0.58,3.1-2.38,4.9-2.38,4.9
	s6.71,3.46,6.17,10.03c0,0,7.5-4.64,12.13-12.41l1.89-8.33c0,0-10.87-17.05-16.61-18.46C340.42,277.97,330.36,286.1,330.36,286.1z"
	/>
<path class="st6" d="M400.42,295.8c0,0-6.77,4.23-6.77,10.36c0,0-5.87,1.95-5.41,7.15s14.66,18.75,14.66,18.75s-0.68-3.86,0.9-4.48
	c0,0,8.57,5.19,13.54,6.6c0,0-13.79-9.85-14.56-13.36c-0.78-3.51,3.51-5.83,3.51-5.83s2.83-7.63,7.22-5.57
	c0,0-0.23-10.49,2.48-10.53C415.99,298.89,411.93,294.17,400.42,295.8z"/>
<path class="st6" d="M320.03,400.37c0,0-6.5-1.89-7.83,0c-1.33,1.89,0.59,7.01,5.48,6.44c0,0,16.6-8.71,41.51-5.68
	c0,0-13.81-4.74-14.25-4.93c-0.44-0.19-0.76-1.89,1.21-2.46C346.16,393.74,325.56,397.91,320.03,400.37z"/>
<path class="st6" d="M388.22,405.67c0,0,5.68-0.95,8.44-2.84l6.12,4.74c0,0,6.58,1.52,8.64,3.41c0.71-1.14,0-4.07,0-4.07
	s8.02,4.07,3.55,12.98c0,0-7.19-5.49-10.19-5.49C404.77,414.39,392.76,406.62,388.22,405.67z"/>
<polygon class="st7" points="310.62,306.17 310.62,313.32 306.25,312.8 299.82,309.26 "/>
<path class="st7" d="M329.39,305.02l-1.03,8.81l16.59-1.61C344.95,312.22,336.46,306.97,329.39,305.02z"/>
<path class="st7" d="M411.42,317.29c0,0-3.6,3.52-1.41,7.06c0,0-5.79-2.37-10.93-3.53S411.42,317.29,411.42,317.29z"/>
<path class="st7" d="M429.55,323.1l-2.44,6.41c0,0,9.64,3.32,14.27,2.4C446,330.99,429.55,323.1,429.55,323.1z"/>
<path class="st8" d="M306.25,312.8c0,0-0.88-3.22,0-3.84c0.88-0.61,4.37-1.11,4.37-1.11s-0.41,3.47,0,5.46s18.71,0.42,18.71,0.42
	s2.04-5.87,1.7-7.57c0,0,11.72,3.78,10.46,6.05c-1.26,2.27-0.69,1.1-0.69,1.1l6.01-1.1c0,0-10.14-8.47-17.27-9.39
	s-25.06-1.2-36.44,5.03C293.11,307.86,299.62,312.34,306.25,312.8z"/>
<path class="st8" d="M410.09,324.92c0,0-2.01-2.97,0.32-6.34c0,0-8.04-1.62-11.33,2.25l0.56,1.54l-5.29-3.27
	c0,0,2.64-1.74,5.29-2.25c2.64-0.51,10.21-1.75,19.07,0.45c8.86,2.21,25.06,9.14,25.98,14.78c0,0-4.83,0.71-11.38,0
	c0,0,4.48-4.8,2.07-6.64l-4.37-1.23c0,0-0.86,4.85-2.67,5.7C428.33,329.9,417.08,328.25,410.09,324.92z"/>
<path class="st8" d="M415.07,303.21c0,0,38.13,1.32,46.21,11.61l3.38,1.21c-1.13-4.9-6.57-11.01-6.57-11.01
	s-17.28-13.51-28.93-14.51c-11.65-1-20.29,2.51-22.54,3.51c0,0-7.05,1.2-8.49,1.44C398.13,295.46,406.68,300.87,415.07,303.21z"/>
<path class="st8" d="M346.81,274.66c0,0,3.41,7.65,3.57,14.27c0,0-12.07-1.32-17.2,0c0,0-28.94-11.62-54.57,2.5
	c0,0,1.66-6.18,4.63-8.39c2.97-2.21,17.53-10.71,31.25-11.17C328.22,271.42,346.81,274.66,346.81,274.66z"/>
<path class="st8" d="M362.77,364.14c-3.91-7.33-13.14-7.02-13.14-7.02c-7.77,1.03-9.86,4.54-9.86,4.54s6.26,3.72,12.99,2.48
	C352.76,364.14,359.56,363,362.77,364.14z"/>
<path class="st8" d="M394.35,366.72c-2.54-5.72-8.76-6.4-10.73-6.4c-1.97,0-4.87,3.41-4.87,3.41v2.99c0,0,5.68,0.1,7.08-0.52
	C385.82,366.2,394.57,367.22,394.35,366.72z"/>
<path class="st8" d="M248.75,319.51l4.14,12.56c0,0,12.4-38.09,15.71-47.17c0,0,6.89-43.91,22.33-62.8c0,0,10.57-10.55,21.27-13.74
	c10.7-3.19,33.85-9.08,61.14-5.4c27.29,3.68,80.21,3.19,101.16,48.57c0,0,11.03,20.03,0,61.78c0,0-3.31,32.18-3.58,41.5l4.57-4.53
	l2.95-7.38l3.05-8.72l2.04-6.6l2.1-7.68l3.1-13.74l2.56-15.84l1.18-18.46l-1.89-7.93l-6.51-14.96l-4.92-10.24l1.4-7.57l-3.73-11.07
	l2.25-8.85l-5.03-7.65l-9.38-5.82l-8.45-2.54l6.99-0.36l9.3,0.96l-1.33-4.49l-5.13-4.76l-7.5-2.87l9.31,0.3l-5.19-7.01l-7.67-5.14
	l-10.3-3.44l-13.28-1.49l-2.78-0.07l-4.32-3.55l-10.97,1.18l-4.81-5.36l-10.48-3.53l-17.29,3.56l-5.87-2.57l-9.42-0.98l-10.2,1.08
	l-10.75,4.55v-3.55l-11.97,3.25l-6.98,7.99l-1.21-1.79l-3.78-1.17l-4.78,2.1l-15.83,12.4l1.66,12.13l-5.98-2.37v7.1l-8.89,10.45
	l-13.8,18.42l-7.57,11.76l-5.55,10.06l-6.49,15.88l-2.85,11.58l-1.73,12.06l-0.77,13.81L248.75,319.51z"/>
<path class="st8" d="M287.92,467.75c0,0,17.78-19.21,37.78-23.45c0,0-4.13,8.76-4.13,13.28l5.4-5.09l-3.65,11.3l12.17-7.77v12.86
	c0,0,3.54-7.91,6.4-9.89c0,0,1.9,15.82,14.6,20.91c0,0,21.27-5.93,26.99-20.34c0,0,11.25,7.91,10.86,11.3l3.42-8.76l5.01,5.09v5.01
	c0,0,7.03-7.55,6.57-11.23c0,0,4.62,7.91,2.71,18.93c0,0-11.75,10.45-20,15.26c-8.25,4.8-33.36,6.78-48.27,5.37
	C328.88,499.11,301.58,484.98,287.92,467.75z"/>
</svg>
