<?xml version="1.0" encoding="utf-8"?>
<!-- Generator: Adobe Illustrator 24.2.1, SVG Export Plug-In . SVG Version: 6.00 Build 0)  -->
<svg version="1.1" id="Layer_1" xmlns="http://www.w3.org/2000/svg" xmlns:xlink="http://www.w3.org/1999/xlink" x="0px" y="0px"
	 viewBox="0 0 1742.26 1272.34" style="enable-background:new 0 0 1742.26 1272.34;" xml:space="preserve">
<style type="text/css">
	.st0{fill:#68BD46;}
	.st1{fill:#FFFFFF;}
	.st2{opacity:0.94;}
</style>
<rect width="1742.26" height="1262.31"/>
<rect y="429.7" class="st0" width="1742.26" height="42.54"/>
<rect x="132.09" y="3183.86" style="fill:none;" width="84.45" height="23"/>
<text transform="matrix(1 0 0 1 132.0906 3202.0059)" style="font-family:'Anton-Regular'; font-size:21px;">PORTFOLIO</text>
<rect x="254.72" y="3182.36" style="fill:none;" width="83" height="23"/>
<text transform="matrix(1 0 0 1 254.724 3200.5059)" class="st1" style="font-family:'Anton-Regular'; font-size:21px;">Resume</text>
<rect x="361.72" y="3182.36" style="fill:none;" width="52.2" height="23"/>
<text transform="matrix(1 0 0 1 361.724 3200.5059)" class="st1" style="font-family:'Anton-Regular'; font-size:21px;">About</text>
<rect x="132.09" y="3207.98" width="80.22" height="4.38"/>
<rect y="1229.8" class="st0" width="1742.26" height="42.54"/>
<path class="st1" d="M18.97,1240.95c0,0,2.5,3.99,9.98,5.28c0,0-0.36-3.78,1.85-5.28s5.28-0.78,6.28,0.5c0,0,0.71,0.36,3.21-1
	c0,0,0.39,0.55-1.85,2.72c0,0,2.3-0.43,2.64-0.76c0,0-1.47,1.98-2.39,2.5c0,0,0.49,8.19-6.01,12.21c0,0-7.2,4.97-15.15,0.2
	c0,0,3.77,0.2,6.9-2.04c0,0-3.18-0.1-4.42-3.43c0,0,1.59,0.05,2.04-0.1c0,0-3.68-0.5-3.73-4.82c0,0,1.74,0.7,2.09,0.55
	C20.4,1247.48,17.04,1245.11,18.97,1240.95z"/>
<g>
	<path class="st1" d="M87.49,1256.82v-14.04c-0.14-3.83-2.7-5.04-4.18-5.41h-0.02c-0.59-0.16-0.99-0.18-0.99-0.18H69.25
		c-7.87,0.12-6.76,7.08-6.76,7.08l-0.06,12.27c0,0.71,0.1,1.31,0.26,1.86c1.01,3.47,4.58,3.91,4.58,3.91h14.65
		C87.89,1262.1,87.49,1256.82,87.49,1256.82z M80.79,1260.51H68.36c0,0-3.35-0.42-4-3.81v-0.02c-0.06-0.32-0.1-0.69-0.1-1.07
		l0.04-10.41c0,0-0.95-5.93,5.75-6.01h11.08c0,0,0.12,0,0.34,0.04c1.01,0.16,3.93,0.93,4.08,4.7v11.92
		C85.55,1255.85,85.87,1260.33,80.79,1260.51z"/>
	<path class="st1" d="M77.28,1243.5c-0.69-0.24-1.41-0.36-2.18-0.36c-3.73,0-6.76,3.03-6.76,6.76c0,0.83,0.14,1.59,0.4,2.32
		c0.95,2.58,3.43,4.42,6.36,4.42c3.71,0,6.74-3.01,6.74-6.74C81.84,1246.93,79.92,1244.41,77.28,1243.5z M75.2,1254.56
		c-2.44,0-4.4-1.94-4.48-4.36v-0.14c0-2.48,2-4.48,4.48-4.48c0.02,0,0.02,0,0.04,0h0.02c2.44,0.04,4.42,2.02,4.42,4.48
		C79.68,1252.54,77.66,1254.56,75.2,1254.56z"/>
	<circle class="st1" cx="82.01" cy="1242.96" r="1.38"/>
</g>
<path class="st1" d="M119.47,1246.9c0,0-1.44-8.74,6.69-9.22c0,0,8.13,0.27,6.76,8.68c0,0,2.6-0.41,2.94,0.55
	c0.34,0.96,0.41,1.91-2.66,3.55c0,0,1.84,4.24,5.05,5.19c0,0,1.09,1.5-2.87,2.39c0,0-0.41,1.84-3.07,1.64c0,0-2.35,0.55-3.43,1.57
	c-1.08,1.02-5.52,0.55-6.54-0.61c-1.02-1.16-3.62-0.89-3.62-0.89s-1.23-0.48-1.43-1.3c-0.2-0.82-2.32-1.16-2.32-1.16
	s-1.64-0.82-0.55-2.05c0,0,3.55-1.02,4.65-4.3c0,0-2.94-2.32-2.66-2.94C116.4,1248,116.06,1246.08,119.47,1246.9z"/>
<line class="st2" x1="697.43" y1="0" x2="900.46" y2="0"/>
<rect x="-36.28" y="2583.88" style="fill:none;" width="646.51" height="119.94"/>
<text transform="matrix(1 0 0 1 -36.2839 2698.8269)" class="st1" style="font-family:'Anton-Regular'; font-size:133.0456px;">Mario Colas</text>
<rect x="-36.28" y="2716.72" style="fill:none;" width="628.74" height="57.49"/>
<text transform="matrix(1 0 0 1 -36.2839 2760.5847)" class="st1" style="font-family:'Anton-Regular'; font-size:50.7674px;">Artist &amp; Designer</text>
<g>
	<polygon class="st1" points="213.12,51.31 213.12,76.92 160.8,129.28 107.26,75.75 107.26,49.67 161.03,103.41 	"/>
	<polygon class="st0" points="213.12,87.72 213.12,116.18 161.1,168.14 161.03,168 160.86,168.14 107.26,114.53 107.26,86.24 
		161.47,140.45 	"/>
	<polygon class="st0" points="234.78,35.29 256.73,35.29 256.73,225.62 233.91,225.62 233.91,35.96 	"/>
	<rect x="264.14" y="35.29" class="st1" width="22.83" height="190.34"/>
	<polygon class="st1" points="33.95,35.29 55.91,35.29 55.91,225.62 33.08,225.62 33.08,35.96 	"/>
	<rect x="63.31" y="35.29" class="st0" width="22.83" height="190.34"/>
</g>
</svg>
